<?xml version="1.0" encoding="utf-8"?>
<!-- Generator: Adobe Illustrator 19.1.0, SVG Export Plug-In . SVG Version: 6.00 Build 0)  -->
<svg version="1.1" id="Layer_1" xmlns="http://www.w3.org/2000/svg" xmlns:xlink="http://www.w3.org/1999/xlink" x="0px" y="0px"
	 viewBox="0 0 250 250" style="enable-background:new 0 0 250 250;" xml:space="preserve">
<style type="text/css">
	.st0{fill:#202020;}
</style>
<g>
	<g>
		<g>
			<g>
				<path class="st0" d="M195,77c0.3,0.1,0.5-0.2,0-0.8l-0.9,0L195,77z"/>
				<path class="st0" d="M193.1,72.3c-0.8-0.5-2-0.8-2.2,0.1c1.1,0.2,1,0.5,2.3,0.7c0.5,0.5,0.6,1.2,0.3,1.2c0.3,0.1,0.5,1,1.1,1.1
					c-0.1-1.1-0.7-2.1-1.9-2.8C192.7,72.3,193,72.4,193.1,72.3z"/>
				<path class="st0" d="M132.2,34.5l0.5,0.6C132.6,34.8,132.4,34.6,132.2,34.5z"/>
				<path class="st0" d="M83.4,40.3c0.3-0.3,0.1-0.9-0.2-1.5C83.1,39.4,83.1,39.9,83.4,40.3z"/>
				<path class="st0" d="M71.7,38.8c0.3,0.1,0.5,0,0.7,0.1C71.9,38.5,71.5,38.3,71.7,38.8z"/>
				<path class="st0" d="M132.2,34.5l-1.2-1.6C130.9,34.4,131.6,34.1,132.2,34.5z"/>
				<path class="st0" d="M185,66.6c0.2,0.1,0.4,0.2,0.6,0.2c-0.2-0.1-0.3-0.2-0.5-0.3C185.1,66.5,185.1,66.6,185,66.6z"/>
				<path class="st0" d="M153.1,37l0.4,0.2c0.2-0.3,0.4-0.7,0.6-1.1L153.1,37z"/>
				<path class="st0" d="M167.4,44.4c-0.3-0.3-1.2,1.3-1.7,2c0.5-0.6,0.9-0.8,1.2-0.7C167.1,45.3,167.2,44.9,167.4,44.4z"/>
				<path class="st0" d="M185.1,61.8l0.4,0.2C185.4,62,185.2,61.9,185.1,61.8z"/>
				<path class="st0" d="M142,32.3c0-0.5,0-0.9,0-1.2C142,31.5,142,31.9,142,32.3z"/>
				<path class="st0" d="M202,92.4C202,92.4,202.1,92.3,202,92.4C202,92.3,202,92.3,202,92.4z"/>
				<path class="st0" d="M196.2,76.2l0.2,0.2c0.1,0,0.2-0.1,0.3-0.1L196.2,76.2z"/>
				<path class="st0" d="M52.8,44.3c0.1,0,0.1,0,0.1,0C52.9,43.5,52.7,43.7,52.8,44.3z"/>
				<path class="st0" d="M61.6,190.7c0.7-2,2.1-2.4,3.4-2.9c1.3-0.5,2.6-1.2,3.1-3.6c-0.5,0.7-2.1,1.5-3.6,2.6
					C63.1,187.9,61.6,189.1,61.6,190.7z"/>
				<path class="st0" d="M184.8,66.3c-0.2-0.1-0.3-0.3-0.4-0.4C184.6,66.1,184.7,66.2,184.8,66.3z"/>
				<path class="st0" d="M68.1,184.3L68.1,184.3l0.1-0.5C68.2,184,68.2,184.1,68.1,184.3z"/>
				<path class="st0" d="M32.7,81.3c1,0.3,1.7,0.4,2.5,0.6C34.6,81.7,33.9,81.5,32.7,81.3z"/>
				<path class="st0" d="M54.5,59.7l-1.1,0.1C54.1,59.9,54.3,59.9,54.5,59.7z"/>
				<path class="st0" d="M36.2,98.6c-0.5,0.3-1.3,0.2-0.6,0.9c0.3,0,0.5,0,0.7,0C35.5,99.2,35.2,98.8,36.2,98.6z"/>
				<path class="st0" d="M34.5,113.8c0.4-0.1,0.7-0.1,1.1-0.2c-0.1-0.2-0.2-0.3-0.3-0.5L34.5,113.8z"/>
				<path class="st0" d="M204.8,129.3c0.3-0.2,0.7-0.4,1-0.5C205,128.9,205.2,127.1,204.8,129.3z"/>
				<path class="st0" d="M185.4,66.3c-0.2,0.1-0.4,0.1-0.5,0c0.1,0.1,0.2,0.2,0.3,0.2C185.3,66.4,185.4,66.4,185.4,66.3z"/>
				<path class="st0" d="M79.1,109l-1.3,1.1C78.5,109.9,79,109.5,79.1,109z"/>
				<path class="st0" d="M149.9,184.5l0.3-0.5C150,184,149.9,184.1,149.9,184.5z"/>
				<path class="st0" d="M77.5,114.1c-2,0-3.1,0.1-3.9,0.3c0.4,0.1,0.7,0.2,1.4,0.3c0,0,0.6-0.2,1.3-0.3
					C76.9,114.3,77.5,114.1,77.5,114.1z"/>
				<path class="st0" d="M205.8,128.8C205.8,128.8,205.8,128.8,205.8,128.8C205.8,128.8,205.8,128.8,205.8,128.8z"/>
				<path class="st0" d="M205.4,116c-0.1,1.8,0.9,0.8,1.4,1.2c0.2,2.2-0.8,1.1-1.3,1.8c0.1,1.4,1,2.4,0.8,3.5
					c-0.2,0.1-0.3,0.3-0.5,0c0.3,0.7,0.3,1.8,0.1,2.9c-0.2,1.1-0.3,2.2,0.2,3.1c-0.1,0.1-0.3,0.2-0.4,0.2c0.7-0.2,1.4-0.2,1.8-0.1
					c-0.1,0.8,0.6,1.7-0.3,1.9c0.1-0.5-0.2-0.6-0.5-0.9l0.2,0.9c-1.4,0.6-0.2-1.2-1.1-1.3c0,0.9,0.2,1.8,0.3,2.7
					c0.1,0.9,0.1,1.8-0.3,2.4c-1.4,0,0.3-3.1-1.3-1.6c0,0,0.3-0.5,0.5-0.9c0.2-0.5,0.5-1,0.5-1c-2.3,1.2,0.4-1.2-2-0.1
					c-0.5,1.2-0.6,1.9-0.7,2.7c-0.1,0.7,0,1.5-0.7,2.6c0.6,0.7,1.2,0.1,1.9,0.8c0.4,4-4.9,1.8-3.8,4.8c0.8,0.9,2.8,1.9,0.9,3.3
					l-1.6-1.2c-1.3,2.1,2.2,2.3-0.3,4.2c-0.6-0.7,0.2-2-0.2-1.8c-2.4,0.9,0.6,1.5,0,2.7l-2-0.5c-1.1,2.3-1.2,5.5-2.5,8.1
					c-0.5-0.5-0.8-1.2-1.9-1c-0.5,1.8-1.9,3.2-3.4,4.5c-1.6,1.2-3.5,2.1-5.4,2.7l1,2.4c-0.2,0.2-1.3-0.3-1.4-0.8
					c-1.7,0.3,1.1,1,1.4,2.1c-0.4,0.6-1.8-0.2-2-1c0,0.7-0.1,1.6-0.3,2.4c-0.2,0.8-0.6,1.7-1,2.4c-0.8,1.6-2.3,2.6-4.2,2.3l-0.2-0.9
					c-1.1,0.2-0.6,1.5-0.2,2.7c0.4,1.2,0.6,2.4-0.9,1.9l0-0.6c-2.1,0.8-3.7,2.3-5.5,3.3c-0.5,0.3-0.9,0.5-1.4,0.7
					c-0.5,0.2-1,0.3-1.5,0.4c-1,0.1-2.1,0-3.4-0.7c0.8,2-0.3,2-1.3,2.2c-1,0.2-1.9,0.5-0.6,3.3c-1.8-0.9-2.6-1.7-3.5-2.3
					c-0.9-0.7-1.8-1.2-3.7-1.7c-0.9,0,0.3,4.1-0.5,5.1l-1.2-3.2c0,0,0,0.9-0.1,1.9c0,0.9-0.1,1.9-0.1,1.9s-0.5-0.9-1.1-1.8
					c-0.5-0.9-1-1.8-1-1.8l-0.7,1.1c0.4,0.1,1.3,1.3,1.6,2.2c-0.5,0.9-1.7,0.6-2.7-0.2c-1-0.8-2-2.1-2.2-3c0,0-0.7,0.9-1.4,1.8
					c-0.7,0.9-1.5,1.7-1.5,1.7c-0.2-1.4,0.3-2,0.5-2.9c-1.1,3.8-1.1-3.6-2.1-0.2c0.4,0.8,0.3,2.1,0.4,2.8c-0.7-1-1.5-1.5-2.3-1.6
					c-0.8-0.1-1.6,0.2-2.3,0.7l-0.1-2.5c-1.3-0.3-2.6,0.1-3.9,0.4c-0.7,0.2-1.4,0.4-2.1,0.5c-0.7,0.1-1.4,0.2-2.1,0.1
					c1,1.3,0.9,5.8,0,6.3l-0.4-4.1c-0.6,2.5,0.9,1.6-0.3,4.6c-1.2-0.5-0.7-4.7-0.1-6l-1.4,1.3c0-1.2,0.3-1.8,0.4-3.4
					c-0.3,1.2-0.8,0.1-1.4-0.7c-0.5-0.9-1.1-1.5-1.6,0.6l0-1.2c-0.7-0.1-1.3-0.2-1.8-0.1c-0.5,0-1,0.1-1.5,0.2c-1,0.2-1.9,0.4-3,0.2
					c-0.7,3.6-1.4,2.6-2.7,5.4c-0.8-0.8-1.5-2.1-2.2-3.2c-0.7-1.1-1.5-2.1-2.5-2.3c-1.9,1.3-1.3,3-2.7,4.9c0.9-3.4-1.1-3.9,0.7-5.9
					c-1.2-0.2-2-0.4-3-0.3c-0.5,0-1,0.1-1.7,0.3c-0.7,0.1-1.5,0.4-2.5,0.7c-0.3,1.5-0.2,2.3-0.8,3.3c-0.8,0.3-0.7-2,0.2-3.5l0.3-0.3
					c-2.8,1.6-3.6-1.9-4-5c-0.2-1.6-0.3-3.1-0.8-3.9c-0.2-0.4-0.6-0.6-1.1-0.6c-0.5,0-1.1,0.3-1.9,0.9l0.3-0.2c0,0-1.2,0.4-2.3,0.8
					c-1.2,0.4-2.4,0.7-2.4,0.7c-0.6-1.4,2.3-1.8,3-4.3c-1.5,0.8-2.5,0.9-3.2,0.7c-0.6-0.2-1-0.8-1.2-1.4c-0.5-1.2-0.7-2.5-3.1-1.9
					c0.8-1.2,1.4-2.2,1.7-3c0.3-0.8,0.5-1.4,0.5-1.9c0-1-0.8-1.4-1.5-1.9c-0.8-0.5-1.7-0.8-2.2-1.5c-0.4-0.7-0.4-1.8,0.8-3.4
					l-2.2,1.8c-2.6,1.1,0.8-1.6,1.1-2.4c-1.7,1.3-1.7,2.1-3.1,2.7c-2.9-1.4-3.6-4.7-3.2-8.2c0.1-0.9,0.3-1.8,0.5-2.7
					c0.2-0.9,0.5-1.8,0.8-2.6c0.3-0.9,0.6-1.7,0.8-2.5c0.3-0.8,0.5-1.6,0.7-2.3c0.2-1-3.5,0-6.6,0.6c-3,0.7-5.4,0.9-2.2-1.5
					c0,0,1.4-0.2,2.8-0.5c1.4-0.2,2.8-0.5,2.8-0.5c-1.8-0.4-2.7-1.3-3.3-2.2c-0.5-0.9-0.5-2-0.6-3c0-1.1,0.1-2.1-0.2-3.1
					c-0.2-1-0.9-1.9-2.5-2.8c1.4,0.1,3.2,0,3.2,0.3c2.2-0.6,2.3-1.3,1.4-1.9c-0.9-0.6-2.8-1.1-4.7-1c0.5-0.6,3.3-0.3,5.2-0.7
					c1.4-0.4,0-0.9-1.1-1.3c-1.2-0.4-2.1-0.9,0.2-1.1c0.7-0.1,1.4,0.2,1.8,0.4c-2.1-0.5,1-2.3-4.4-2c1.3-0.7,0.9-1.4,0.5-2.1
					c-0.4-0.7-0.7-1.4,1-1.8c-2.9-0.7-2-1.3-1.5-1.8c0.5-0.5,0.8-1-3.4-1.8c8.7,1.4,7.8-1.2,3.9-3c2.6,0.9,3-0.1,6.6,1
					c0.2-0.9-1.1-2.2-5.7-3.2c5.6,0.5,3.8-0.9,2.4-2.3c-1.4-1.3-2.5-2.7,4.4-0.7c-3.5-4.4-5.1-8.6-5.5-12.4c4.1,2.3,3.8,3.1,3.8,3.9
					c-0.1,0.8-0.1,1.6,4.3,3.7c-0.6-0.9-1.4-2-2.2-3.1c-0.8-1.1-1.7-2.1-2.4-3.1c-1.4-2-2-3.8-0.3-4.4c1.5,0.1,3.2,2.6,4.5,3.6
					c-1-2.2,0.1-3.1,0.8-4.1c0.4-0.5,0.8-1,0.9-1.7c0.1-0.7-0.1-1.6-0.6-2.9c0.7,0.6,1.2,1.4,1.6,2c0.1-0.6,1.8,0-1.5-2.7l0.6,1.1
					c-2.6-1.7-4.8-4.1-6.5-6.5c-1.7-2.4-3-4.7-4.2-5.9c8.4,8.9,4.2,0,14.5,11.5c-0.4-0.8-1.6-2.5-3.7-4.4c0.9,0.2,2.2,1.2,4.2,3.8
					c-0.3-1.4-1.3-2.9-2.1-4C85.6,76,85,75,85.7,74.4c1.4,1.5,1.7,2.3,3.3,4.2c-2.2-3.4-4.3-7.1-2-6.8c0.7,1,1.9,2.1,1.6,2.3
					c0.7-1-0.3-3.8-0.7-6.2c-0.4-2.4-0.3-4.4,2-3.7c4.3,7.6,2.4,1.7,6.7,7.8c0,0,0-0.7-0.1-1.4c0-0.7,0-1.3,0-1.3L94,66.7
					c0.6-0.3,0.3-1.8,0.3-3c0-1.2,0.1-2.2,1.2-1.5c0,0,0.2,0.8,0.3,1.6c0.2,0.8,0.4,1.6,0.4,1.6s0.1-0.2,0.2-0.4
					c0.1-0.2,0.3-0.6,0.5-0.9c0.3-0.6,0.7-1.3,0.7-1.3s-0.6-0.4-1.3-0.8c-0.7-0.4-1.3-0.8-1.3-0.8c-0.7-4-4.8-8-2-7.2
					c0,0.9,1.4-0.7,4,2.7c0,0,0,0,0,0c-0.4-2.4-0.8-4.9,1-3.8c1.2,1.9,3.2,7.2,4,8.5c-1-2.9-0.4-3.6,0.1-4.4
					c0.6-0.8,1.1-1.7,0.4-4.7c0.3,1.5,1.6,4.9,2,5.5l-1.2-4.6c1.2,1.1,1.5,1.8,2.4,4.5c1,0,0.1-2-0.6-3.6c-0.7-1.7-1.3-3,0.5-1.7
					c0,0.4,0.3,1,0.2,1.9c1.4,0.4,2.2-0.7,3.1-1.7c0.8-1.1,1.8-2,3.1-1.3c2.2,6.1-1.3,2.2,0.8,7.3c0.6-0.6,1.1-1.5,1.6-2.5
					c0.5-1,1.1-2.1,1.7-3.1c0.6-1,1.3-1.9,2-2.5c0.7-0.6,1.5-0.9,2.3-0.7l-0.7-0.5c-0.4-4.2,0.4-3.3,1.3-1.8
					c0.9,1.4,1.9,3.3,2.5,1.2c-0.3,0.6-0.1,4.6-0.1,3.6c1.1,0.4,2-0.3,3.1-1.5c1.1-1.1,2.5-2.7,4.1-4l-0.4,1.9
					c1.2,1.6,3.3,0.6,4.6,1.3c0.5-1.8,1.3-1.5,1-4c0.4,1.2,0.9,2,1.4,2.5c0.5,0.5,0.9,0.7,1.4,0.8c1,0.1,2.1-0.6,3.2-1.2
					c1.1-0.6,2.2-1.2,3.2-1.2c1,0,1.9,0.7,2.4,2.3c-0.5,0-1.4,1.1-1,1.1c0,0,0.9-0.3,1.8-0.5c0.9-0.2,1.8-0.4,1.8-0.4
					c0.3-2.1-0.1-1.3-0.3-3.1c0.8-1.2,2-1.9,2.8-1.7c-1,0.5-1.2,1.3-1.2,2.2c0,0.9,0.3,1.7,0.5,2.3c0.1-0.6,0.5-1.3,0.6-1.9
					c0.6,3.9,1.5-3.9,3.1-0.8l-0.5,0.9c1.1-0.3,2.3-1.2,3.1-0.6c-0.4,2.1-1.3,0.6-2,2.3c0.7,0.1,1.7-0.6,2.6-1.1
					c0.9-0.5,1.7-0.6,1.9,0.6c-0.8,0.3-1.6,0-2.3,0.4c0.4,2.6,0.7,2.1,1.5,2.7l-0.1-0.1l1.8,1.6l-0.3-0.7c1.8-2,2.7-1.7,3.6-1.4
					c0.9,0.4,1.7,0.9,3.4,0.3c-3.3,1.2-1.1,1.2-2.1,2.7c0.3,0.7,0.8,1.5,0.4,1.8c1.7-0.8,1.1,1.5,3.5,0.5c-0.2,0.5,1,0.5,0.1,1.5
					c1.5,0.2,0.2-0.9,0.6-1.4c1.4-0.3,2.3,0.9,3.3,1.8c0.5,0.5,1,1,1.7,1.4c0.6,0.4,1.4,0.7,2.3,0.7c1.4,0.5,2.3,0.6,3.2,0.8
					c0.9,0.1,1.8,0.3,2.9,1c0.1,0.5-0.2,0.6-0.6,0.6c-0.4,0-0.8-0.2-0.8-0.2c0.7,1.3,1.6,1.8,2.8,2.5c-0.4,0-0.3,0.3-0.3,0.8
					c0.8,0.7,1.3-0.2,2,1c-0.4,0-1,0.2-1.6,0c0.6,0.3,1.1,0.6,1.7,0.9c0.6,0.3,1.1,0.7,1.6,1.1c-0.1,0.5-1-0.1-1.6-0.2
					c1.2,0.9,2.9,2.4,3.6,2.4l-0.4-0.9c0.4,0.4-0.3,0.6-0.6,0.3c-1.2-0.6-1-1.4-0.9-1.7l0.7,0.6c0.2-0.8-0.4-1.5-1.3-2.1
					c-0.9-0.6-2-1.1-2.7-1.8c0,0,0.4-0.1,0.7-0.2c0.4-0.1,0.7-0.1,0.7-0.1s-0.5-0.2-1-0.3c-0.5-0.2-1-0.3-1-0.3
					c-0.1-0.5,0.3-1.2,1-0.7c-0.5-1.4-1.2-0.5-1.5-1.8c0-0.2,0.1-0.2,0.2-0.1l-1.2-0.6c0.4,0,0.5-0.9,1-0.2
					c-1.1-2.4-3.5-1.8-3.4-3.3l0.2,0.1c-1.4-0.9-1.7-0.7-1.9-0.4c-0.2,0.3-0.5,0.8-1.9,0.7l0.7-3.6l-1,0.9c-0.2-0.2-0.7-0.7-0.3-1.1
					c-1.6,0-0.2,0.6-1.3,0.9c-0.3-1-1.3-1.6-2.1-2.1c-0.8-0.5-1.5-1-0.9-2.2c-1.1,0.7,0.8,1.7-1.1,1.4c0.5-1.3,0-1.5-0.6-1.6
					c-0.7-0.1-1.6,0-1.9-1c1.2-1.2,2,0.4,1.4-1.7c-1,0.9-1.6,0.4-2-0.4c-0.5-0.8-0.8-1.9-1.5-2c-1.1,2.1-2.9-0.5-5.2-0.7
					c0.5-0.8-3.1-3.2-4.6-5.2l0.2-0.5c-0.7,1.4-1.5,1.8-2.3,1.8c-0.8,0-1.7-0.3-2.5-0.2c0.6-1.9,1.1-2.6,2.2-3.1
					c0,0-0.3-0.2-0.7-0.3c-0.3-0.1-0.7-0.3-0.7-0.3c-0.6,0.9-1.2,1.3-2.2,1.4l1-2.4c-0.5-0.2-1-0.2-1.5-0.1
					c-0.5,0.1-1.1,0.2-1.7,0.3c-1.1,0.2-2.3,0.1-3.3-1.2c-0.3,1.4-0.2,3.4-0.4,5.2c-0.2,1.8-0.6,3.4-2,4.2c0.2-1.5,0.5-4.1,1.3-4.6
					c-0.3,0.1-1,1.1-1.3,0.4c0,0,0.4-0.6,0.7-1.2c0.4-0.6,0.7-1.1,0.7-1.1c-0.9-1.4-0.9,2-1.8,1.6c0.4-2.2-0.4-1.7,0-3.4
					c0.3-0.1,0.6,1.1,1.1,0.4c-0.9-0.7-1.9-2.3-2.1-4.2c-0.1,1.3-0.4,3.1-1.2,3.2c-1.9-0.3-0.3-3-1.3-4.5c-0.7,1.5-1.8-0.5-2.1,3.1
					c-0.6-0.1-0.5-1.9-0.7-2.9c-0.6,0.7-1.8,0.6-2.8,0.8c-1,0.3-1.6,0.9-1.1,3.1l0.2,0.5c-0.1,0.1-0.1,0.3-0.2,0.3c0,0,0,0,0,0h0
					c-1.7,1-3.3,1-5.1,0c-1.7-1-3.6-2.3-5.2-1.4l-0.1-1.5c-0.9,0.8-2,1.1-3,1.6c-1,0.5-1.9,1.2-2.3,3c-0.6,0.1-1.8-2.7-1.9-4.6
					c-1.4,1.3-1.2,3.1-3.9,0.8c1-3-1.1-2.4,1.2-2.3c-2.3-1.1-3.5-3.8-4.6,1.1c-0.2-4.3-2.9-5.1-3.6-3.6c0,0,0.6,0.7,1.2,1.4
					c0.6,0.7,1.1,1.4,1.1,1.4c-0.9,0.8-2,0.6-3.1,0.4l-1.1-5.7c-3.3-3-4.6,0.3-5.5,3.2c-1,2.9-1.8,5.2-5.9-0.1
					c0.6,4.4,3.5,2,4.4,7.1c-1.1,0-3-2-4.8-3.8c-1.8-1.9-3.5-3.7-3.8-3.6c-2.1-1-1.8,1.3-1.3,3.8c0.5,2.5,1.1,5.1-0.8,4.6
					c1.5,1.9,4.6,7.2,3.9,10c-2,0.1-7-7.4-6.8-9.6c0.3-0.4,0.9,0.1,1.3,0.8c0.2-1,0.5-2.3-1.5-4.1l0.9,2.1c-1-0.8-2.2-0.8-3.2-1.1
					c-1-0.3-2-0.7-2.7-2.6c-0.3,2.7,1.4,3.6,3.1,4.1c-2-0.8-3-0.3-3.9,0.3c-0.9,0.6-1.6,1.4-3.5,1.2c1.1,0.8,3,2.9,2.7,3.1
					c-2.5-0.1-2.2,1.1-1.5,2.5c0.7,1.5,1.9,3.2,1.2,4.4c-3.4-2-4.9-7.3-5.2-3.2c-2.9-0.9-4.3-4.8-5-6.7c0.2,1.3-0.1,2-0.6,2.3
					c-0.5,0.3-1.4,0.3-2.3,0.1c-1.8-0.4-4-1.4-4.9-1.2l-0.1-2.4c0.1,1.4-0.5,1.9-1.1,2.3l3.9,3.1c-1.2-0.1-1.8,0.4-3.1-1.1
					c0.8,1.5,2.3,2.8,3.8,4.4c1.5,1.6,3.1,3.3,4,5.4c-2.5-1.1-0.4,4-5.2-0.3c2-0.4,0.8-1.5-0.8-2.8c-1.6-1.3-3.5-2.9-2.7-4.3
					c0.1,1-0.4,1.4-1.7,1.4c-0.6-0.4-0.9-1-1-1.5c-6.7-1.6,4.1,6.3,1.7,8.6c-2.4-2.8-5.8-4.1-5.6-3.1c1-1,5,3.6,6.4,6.4
					c-3.6-0.3,0.1,3.1-0.8,3.7l1.8-0.1c2.6,2.7,1.6,3.1,1.6,4.9c-2.3-1.7-0.8-2.2-2.1-2.6c2.1,2.6,0.2,2.2-1.9,1.8
					c-2.2-0.4-4.6-0.8-3.4,1.4c-2.7-0.6-5.8-3.9-7.7-4.1c1.2,2.5-0.2,2.3-1.8,2.2c-1.5-0.1-3.2-0.2-2.3,2.1c4.7,1.9,3.7,1.2,6.8,5.3
					c0,0-0.2-1.4-0.4-2.8c-0.1-1.4-0.3-2.8-0.3-2.8s1.1,1.6,2.3,3.2c1.2,1.6,2.3,3.1,2.3,3.1c0.7-1-1.2-4-0.1-4.2
					c2.7,3.3,1.7,2.5,5.5,4.3c-3.6-1.3-3.1,0-2.4,1.4c0.7,1.5,1.7,3-0.9,2.6l-10.6-6.2c-3.2,0.1-2.5,2.2-1.6,4.4
					c1,2.3,2.2,4.6,0,5.9c0,0,0.6-0.1,1.2-0.2c0.6-0.1,1.2-0.1,1.2-0.1c4.2,2.5-0.3,2.5,1,4.5c-3.7-1.7-5.4-1.5-7.9-1.9
					c2.8,1-1.3,2.9,6.2,6c0,0-1.4,0-2.8-0.1c-1.4,0-2.8,0-2.8,0c-1.5,1.3,0.9,3.1,3.5,4.8c2.5,1.7,5.3,3.4,4.3,4.6
					c-3.9-2-7-1.4-9.5-4.3c-0.3,1-1.2,1.8,1.5,2.5c-1.3,0-0.1,1,0.8,2.1c1,1,1.8,2-0.1,2.1c1.6,0.8,5.6,1.8,5.1,2.8
					c-0.8,0-1.9-0.4-1.9-0.4c1.9,0.4,2.3,2.2,6.7,2.1c-3.1,0.1-4.7,0.7-5.4,1.6c-0.8,0.8-0.8,1.9-0.6,3c0.1,1,0.3,2.1-0.2,2.9
					c-0.5,0.9-1.6,1.6-4.2,2.1c0.6,1.2,1.2,2.4,1.7,3.6c0.5,1.2,0.9,2.3,1,3.3c-1.1-0.1-1.8,0-1.5-0.4c-1.6,1.4,1,1.8,3.7,2.2
					c2.6,0.4,5.2,0.8,3.3,2.3c-5.8,1.8-3.3-1.4-5.5-0.4c-6,0.4-5.5,1.4-4.3,2.5c1.2,1.1,2.9,2.3-0.3,3.7L33,130
					c-1.9,1-0.6,2,1.1,2.9c1.7,0.9,3.8,1.9,3.7,3.2c0,0-1,0-1.7,0.3c3.1,0.4,5.3,1.3,7,2.3c1.7,1,2.8,2.1,4,3
					c-4.5,0.4-2.6-0.5-6.8,1.1c0.9,0.9,7-2,8.7-0.4c-2.2,1.3-3.8,3.3-8.2,4.9c0,0-0.2-0.5-0.5-1c-0.2-0.5-0.4-1-0.4-1
					c-2.8,1.3-2.5,2-1.7,2.5c0.9,0.5,2.4,0.7,2.1,1.4l-2.6,0.7c2,2.9,8.4,0.7,9.2,3.9l1.7-1.1c3.4-0.4,2.7,0.3,1.8,1
					c-0.9,0.8-1.9,1.7,0.6,1.5l-5.8,3.2c1,0.2,2.9,0.6,4.8,0.9c1.9,0.4,3.8,0.8,4.8,1.4c-4.8,1.3-8.2,0.1-11.6-0.2
					c0.6,1.2,2.5,3.6,5.6,2.7c-0.8-0.1-2.5,0-1.8-0.9c5.2-0.9,8.4-0.6,9.4,1.4c-5.5,3-5.3,4.7-4.6,6.5c0.7,1.8,1.9,3.6-1.4,7.1
					c0.8,0.1,1.5,0.4,2,0.6c0.6,0.3,1,0.6,1.4,1.1c0.8,0.8,1.2,2,1.6,3.1c0.9,2.3,1.5,5.1,3.8,6.7c5.2-7.7,1.3,0.9,7.7-5.9
					c1.2,0.4,1.5,0.7,1.1,1.3c0,0-0.3,1.6-0.6,3.2c-0.1,0.8-0.3,1.6-0.4,2.2c-0.1,0.6-0.1,1-0.1,1c-1.1,2.6-2.3,0.8-3.6,2.4
					c0.8,1.2,0.4,2.1-0.3,3.1c-0.6,1-1.5,2.1-1.6,3.6c1.9-2.7,3.8-3,4.3-1c0,0,0.2-1.2,0.5-2.3c0.2-1.2,0.5-2.3,0.5-2.3
					c3.1-0.7,2.4,1.3,1.9,3.3c-0.5,2-0.9,4,2.1,3.2l-2.7,1.6c1.3-0.1,3,1,4.9,1.4c2,0.5,4.4,0.2,7-2.4c-0.2,1-1.1,3.4-2.2,3.5
					c0.9,0.8,2.2,1.1,3.6,1.2c1.4,0.1,3-0.1,4.4-0.3c1.5-0.1,2.8-0.2,3.9,0.1c1.1,0.2,1.9,0.9,2.3,2.2l-1.2,1.8
					c1.1-0.2,2.9-3.1,3.1-0.8c-0.4,0.8-1.1,1.8-0.8,2.1c0.7-0.5,3.5-2.7,4.2-1.2l-1.7,1.9c1.7,2,4,1.1,6.1-0.3
					c2.2-1.4,4.2-3.4,6.1-3.7c-1.5,5.7,1.6,8.3,3.3,9.4l-0.2,0.8c1.3,0.3,2.6,0.3,3.9,0c1.3-0.4,2.5-1,3.7-1.7
					c1.2-0.7,2.4-1.5,3.5-2.3c1.2-0.8,2.3-1.5,3.5-2c0.7,1.5,1.6,2.4,2.8,2.9c1.2,0.5,2.5,0.6,3.9,0.7c1.4,0.1,2.8-0.1,4.3,0
					c1.4,0.1,2.8,0.2,4.1,0.8c-0.8-0.8-0.3-4.1,0.4-4.8c1.3,0.9,2.4-4.2,3,0.6l-0.4,0c1.5,4.5,3.7,2.7,5.5,2.3l-1-6.1
					c1.6,1.9,3.1,2.4,4.5,2.2c1.4-0.2,2.7-1.1,3.9-2c1.2-0.9,2.2-1.8,3.3-2.1c1.1-0.3,2.2,0,3.4,1.4c0.5-1.8,1.8-2.4,2.2-4.2
					l1.2,2.8c1.6-0.4,2.7-0.6,3.9-1.2c1.1-0.6,2.3-1.3,3.8-2.7l0.3,2.3c1-0.5,0.6-2.8,0-5c-0.5-2.2-1.1-4.4-0.4-5l2.7,3.3
					c1.5-1.1,3.5-1.4,5.2-2.3c0.9-0.4,1.7-0.9,2.3-1.7c0.6-0.8,1-1.8,1.1-3.1c0.3,0.5,1,1.5,0.6,2c1.4-1,6.7-2.8,2.6-6.4
					c2.4,2.6,2.8-2.6,3-5l1.6,2c-1.2-3.5-1.8-4.1-1-6.4c0.6-0.2,1.7,0.9,0.8,1.1c2-0.6-0.8-2.6,1.4-3.4l0.7,1.6
					c1.2-1.4,0.6-1.7-0.2-3.6c-0.1-1.5,2.4-2.4,4.1-1.5c-0.8-0.9-1.6-2.7-0.6-3.3c0.7,0.3,0.8,0.9,0.9,1.2c1.4-0.9,1.4-2.2,1.5-3.4
					c0-1.2,0.1-2.1,1.4-2.6c0.6,0.3,0.9,0.3,1.2,0.3c-1.1,2.2-2.1,3.8-2.2,3.6c1.6,1.1,2.8-0.6,4.3,2.3c-0.2-1.1-0.7-2.7-0.9-4.2
					c-0.2-1.5-0.2-2.8,0.5-3.4c0.2,0,0.4,0,0.6,0.1l0.1,0.3c0.3-0.3,0.3-0.8,0.2-1.3c0.5-0.4,0.8-0.7,1-1.3c1.3,0.4,1.5-1.8,1.8-2.8
					c-1.6-0.7-0.9-1.7-2.6-1.2c0.2-0.1,0.1,0.3,0,0.9c0,0.2,0,0.3,0,0.5c0,0-0.1-0.1-0.1-0.1c-0.2,0.6-0.5,1.4-0.8,2.3
					c-0.6-1.1-0.9-2.2,0.4-2.7c-0.8-0.9-1.7-1.9-2.1-2.4c1.3-0.1,2.5-0.6,3.5-1.1c1-0.5,1.8-1,2.5-0.9c0-1.6,0.3-3.4,0.3-5
					c0-0.8-0.1-1.7-0.3-2.4c-0.2-0.8-0.6-1.5-1.1-2.1c-0.1-0.9,0.9-0.7,1.3-0.9c0.2,0.5,0,1.1,0.3,1.4c-0.2-0.9,0-2.1,0-3.2
					c0-1.1-0.2-2-0.9-2.4c1-1.9,1.3,1.4,1.4-1.4l0.4,0.5c0.7-1.3,0.9-2.6,0.8-3.8c-0.1-1.2-0.5-2.5-0.8-3.6
					c-0.7-2.4-1.1-4.7-0.1-7.7c-0.1,0.4-0.2,0.6-0.4,0.7c0.3-1.7,0.1-3.5,0-5.2c-0.2-1.8-0.4-3.5-0.8-5.3c-0.6-3.5-1.4-6.9-1.7-10.3
					c-0.4-1.9-0.8-2-1.4-3l0.4-0.5c0,0-0.3-0.4-0.6-0.9c-0.3-0.4-0.6-0.9-0.6-0.9c-0.3-0.6-0.5-1.3-0.6-1.9
					c-0.1-0.6-0.2-1.3-0.4-1.9c-0.1-0.7-0.2-1.4-0.5-2.1c-0.3-0.7-0.6-1.4-1.2-2.2l-0.1,0.6c-0.2-0.6-0.7-1.5-1-2.3
					c-0.4-0.7-0.6-1.3-0.4-1.3c-0.1-0.1-0.5-0.2-0.6-0.8l0.2-0.2c0,0-0.5-0.7-0.9-1.3c-0.5-0.6-1-1.3-1-1.3c-1-2.3,1.2-0.2-0.5-3.4
					c-0.8-1.1-2.7-2.8-2.6-2.3c0.3,0.5,0.6,1.3,0.3,1.5l-0.8-0.9c-0.9,0.3-2.2,0.1-1.1,2.8l1.6,1.4l0,0.8c0,0-0.2-0.4-0.5-0.7
					c-0.2-0.3-0.5-0.7-0.5-0.7c0.2,1,0.8,1.3,1.4,1.8c-0.1,0.2-0.1,0.6,0,0.9c0,0,0.4,0.3,0.9,0.7c0.4,0.3,0.8,0.7,0.8,0.7
					c-0.2,0.4-1-0.5-0.5,0.8c0.8,0.7,0.2-1.1,1.1,0.1c0.1,1-0.3,0.9,0.5,1.8c-0.1,0.2-0.3,0.1-0.6-0.3c0.7,0.8,1.3,2.3,1.9,2.7
					c0,0.5,0.4,1.3,0.7,2c0.3,0.7,0.4,1.2,0.1,1.3c0.3,0.2,1.2,1.5,1.5,2.3c-0.7-0.6-0.4,0.2-0.1,1.1c0.3,1,0.6,2.1,0.1,2
					c0.6,0.5,0.9,1.5,1.3,2.7c0.2,0.6,0.3,1.2,0.5,1.8c0.1,0.6,0.3,1.2,0.5,1.7c-0.1-0.1-0.3-0.3-0.3-0.5c0.1,1.2-0.1,1.7-0.1,2.5
					c0.8,0,1.2,1.9,1.8,2.9c-0.6,1.6-1.1-0.8-1.7-0.2c0.3-0.1,0.6,0.5,0.8,1.1c0.2,0.6,0.4,1.1,0.6,0.8c-0.4,1.2-0.2,1-0.9,1.7
					c1.1,0.1,0.3,1.1,0.9,2c-0.6,1.7-1.1,0.5-0.8,2.3C205.8,117.6,205.4,116,205.4,116z M195,156.8C195,156.8,195,156.8,195,156.8
					c0.1-0.3,0.3-0.6,0.4-0.8C195.3,156.2,195.2,156.4,195,156.8z M193,159.8c0.3-0.3,0.7-0.7,1-1.2c0.7,0.2,1.2,0.7,1,1
					C194.7,159.2,193.8,159.6,193,159.8z M208.3,158.9c0,0.7-0.4,0.8-0.8,0.7c0.1-0.3,0.1-0.7,0.2-1.2c-0.1,0-0.1-0.1-0.2-0.2
					C207.9,158.5,208.2,158.7,208.3,158.9z"/>
				<path class="st0" d="M206.6,156.8c0-0.1,0-0.2,0-0.3c-0.2,0.1-0.3,0.1-0.5,0.2c0.1,0.2,0.3,0.3,0.4,0.4
					C206.6,157,206.6,156.9,206.6,156.8z"/>
				<path class="st0" d="M132.8,35.2L132.8,35.2c0,0.1,0,0.2,0.1,0.5C132.8,35.4,132.8,35.3,132.8,35.2z"/>
				<polygon class="st0" points="152.8,182.2 153.1,182.9 153.1,182.2 				"/>
				<path class="st0" d="M151.7,48.9c0,0.2,0,0.5,0.1,0.7C151.8,49.5,151.7,49.2,151.7,48.9z"/>
				<path class="st0" d="M159.8,51.4l0.9,1C160.4,51.9,160.1,51.6,159.8,51.4z"/>
				<path class="st0" d="M165.7,54.4c0.2-0.2,0.3-0.4,0.5-0.6c0,0,0,0,0,0L165.7,54.4z"/>
				<path class="st0" d="M85.2,84.1c0,0.1,0,0.2,0.1,0.3C85.8,85.5,85.7,85,85.2,84.1z"/>
				<path class="st0" d="M97,56.7c0.2,1,0.4,2,0.4,2.7C98,59.6,98.4,59.5,97,56.7z"/>
				<path class="st0" d="M79.3,108.9C79.2,108.9,79.3,108.9,79.3,108.9c-0.1,0-0.1,0.1-0.1,0.1L79.3,108.9z"/>
				<path class="st0" d="M96.2,60.1c1,0.7,1.2,0.3,1.2-0.6C96.8,59.3,96.1,59.1,96.2,60.1z"/>
				<path class="st0" d="M189.3,70.8l0.2,0.3c0,0,0.1,0,0.1,0L189.3,70.8z"/>
				<path class="st0" d="M189.6,71l0.3,0.2C189.8,71.1,189.7,71,189.6,71z"/>
				<path class="st0" d="M190.6,71.7l-0.6-0.5C190.1,71.4,190.3,71.7,190.6,71.7z"/>
				<path class="st0" d="M183,64.5l-0.3,0.2C182.8,64.6,182.9,64.6,183,64.5z"/>
				<path class="st0" d="M180.8,62.9c0.5,0.4,0.8,1.5,1.6,1.9l0.2-0.1C182,64.8,181.7,62.8,180.8,62.9z"/>
				<path class="st0" d="M174.7,51.7c0,0,0.4,0.5,0.8,0.9c0.4,0.5,0.8,0.9,0.8,0.9c0-0.7-0.1-1.6,0.8-1
					C175.8,49.2,177.1,53.8,174.7,51.7z"/>
				<path class="st0" d="M169,46.5c1.2,0.5,0.4-0.9,0.7-1.2C168.7,45.4,168.4,45.4,169,46.5z"/>
				<path class="st0" d="M114.5,31.5l-0.5-4.1C112.9,28,114.2,28.9,114.5,31.5z"/>
				<path class="st0" d="M110,55.7c0,0,0.4,0.6,0.8,1.2c0.4,0.6,0.8,1.2,0.8,1.2l-0.8-4.1c0,0-0.2,0.4-0.4,0.8
					C110.1,55.2,110,55.7,110,55.7z"/>
				<path class="st0" d="M93.2,26.3l0.3-0.8c0,0-0.3,0.5-0.7,1.1c-0.3,0.5-0.7,1.1-0.7,1.1L93.2,26.3z"/>
				<path class="st0" d="M29.9,110.6l6.1,0.3C34.9,110,28.1,109,29.9,110.6z"/>
				<path class="st0" d="M43.9,154.5c-2.3,1.4-3.3,3.2-0.6,2.9C43.2,156.4,44.7,154.7,43.9,154.5z"/>
				<path class="st0" d="M151.5,212.3l-0.6,1.4c0,0,0.4-0.4,0.7-0.7c0.4-0.4,0.7-0.7,0.7-0.7s-0.2,0-0.4,0
					C151.7,212.3,151.5,212.3,151.5,212.3z"/>
			</g>
		</g>
	</g>
</g>
</svg>
